<svg width="55" height="46" viewBox="0 0 55 46" fill="none" xmlns="http://www.w3.org/2000/svg">
<path d="M47.291 20.8352C41.1347 16.3467 38.6224 9.47855 38.5977 9.40976L38.5868 9.38081C35.1294 0.981949 28.8418 0.642589 27.6337 0.666919C26.4084 0.646783 20.1187 0.981949 16.6575 9.39004C16.6282 9.46345 13.6746 16.8203 7.96587 20.828C3.32934 24.0832 -0.739212 30.2471 1.74328 37.7856C1.81627 38.0344 2.61622 40.6305 4.95441 42.8391C8.9827 46.6446 14.2887 46.2386 18.0305 45.2285L18.0557 45.2213C18.0922 45.2096 21.7253 44.0795 24.9389 43.2728C26.6957 42.832 28.5524 42.8328 30.3087 43.2728C33.5215 44.0787 37.1559 45.2096 37.1924 45.2213L37.2168 45.2285C39.0327 45.7184 40.6536 45.9256 42.097 45.9256C46.0456 45.9256 48.6657 44.3765 50.2937 42.8391C52.6319 40.6305 53.4318 38.0327 53.5048 37.7856C56.5649 28.4916 49.5235 22.4619 47.291 20.8352Z" fill="#DCE1E7"/>
</svg>
